# AST/ASF file generated using VICON BodyLanguage
# -----------------------------------------------
:version 1.10
:name VICON
:units
  mass 1.0
  length 0.45
  angle deg
:documentation
   .ast/.asf automatically generated from VICON data using
   VICON BodyBuilder and BodyLanguage model FoxedUp or BRILLIANT.MOD
:root
   order TX TY TZ RX RY RZ
   axis XYZ
   position 0 0 0  
   orientation 0 0 0 
:bonedata
  begin
     id 1 
     name lhipjoint
     direction 0.573633 -0.743009 0.344793 
     length 2.46257 
     axis 0 0 0  XYZ
  end
  begin
     id 2 
     name lfemur
     direction 0.34202 -0.939693 0  
     length 7.3842  
     axis 0 0 20  XYZ
    dof rx ry rz
    limits (-160.0 20.0)
           (-70.0 70.0)
           (-60.0 70.0)
  end
  begin
     id 3 
     name ltibia
     direction 0.34202 -0.939693 0   
     length 7.50407   
     axis 0 0 20   XYZ
    dof rx
    limits (-10.0 170.0)
  end
  begin
     id 4 
     name lfoot
     direction 0.110749 -0.304281 0.946123   
     length 1.95925   
     axis -90 7.62852e-016 20   XYZ
    dof rx rz
    limits (-45.0 90.0)
           (-70.0 20.0)
  end
  begin
     id 5 
     name ltoes
     direction 1.53554e-011 -4.21843e-011 1   
     length 0.978318   
     axis -90 7.62852e-016 20   XYZ
    dof rx
    limits (-90.0 20.0)
  end
  begin
     id 6 
     name rhipjoint
     direction -0.488109 -0.791693 0.367385   
     length 2.31113  
     axis 0 0 0  XYZ 
  end
  begin
     id 7 
     name rfemur
     direction -0.34202 -0.939693 0   
     length 7.40965   
     axis 0 0 -20   XYZ
    dof rx ry rz
    limits (-160.0 20.0)
           (-70.0 70.0)
           (-70.0 60.0)
  end
  begin
     id 8 
     name rtibia
     direction -0.34202 -0.939693 0   
     length 7.55548   
     axis 0 0 -20   XYZ
    dof rx
    limits (-10.0 170.0)
 end
 begin
     id 9 
     name rfoot
     direction -0.127594 -0.350561 0.927808   
     length 2.07199  
     axis -90 -7.62852e-016 -20   XYZ
    dof rx rz
    limits (-45.0 90.0)
           (-20.0 70.0)
  end
  begin
     id 10 
     name rtoes
     direction -1.53542e-011 -4.21909e-011 1   
     length 1.02667   
     axis -90 -7.62852e-016 -20   XYZ
    dof rx
    limits (-90.0 20.0)
  end
  begin
     id 11 
     name lowerback
     direction -0.0103342 0.997298 -0.0727278   
     length 2.02836   
     axis 0 0 0   XYZ
    dof rx ry rz
    limits (-20.0 45.0)
           (-30.0 30.0)
           (-30.0 30.0)
  end
  begin
     id 12 
     name upperback
     direction 0.0171146 0.999786 -0.011606   
     length 2.03179   
     axis 0 0 0   XYZ
    dof rx ry rz
    limits (-20.0 45.0)
           (-30.0 30.0)
           (-30.0 30.0)
  end
  begin
     id 13 
     name thorax
     direction 0.0216927 0.999513 0.0224343   
     length 2.03882   
     axis 0 0 0   XYZ
    dof rx ry rz
    limits (-20.0 45.0)
           (-30.0 30.0)
           (-30.0 30.0)
  end
  begin
     id 14 
     name lowerneck
     direction 0.000989287 0.993907 0.110221   
     length 1.75428   
     axis 0 0 0   XYZ
    dof rx ry rz
    limits (-20.0 45.0)
           (-30.0 30.0)
           (-30.0 30.0)
  end
  begin
     id 15 
     name upperneck
     direction -0.0172474 0.994813 -0.100253   
     length 1.77058   
     axis 0 0 0   XYZ
    dof rx ry rz
    limits (-20.0 45.0)
           (-30.0 30.0)
           (-30.0 30.0)
  end
  begin
     id 16
     name head
     direction -0.00486455 0.99894 -0.0457663  
     length 1.77427  
     axis 0 0 0   XYZ
    dof rx ry rz
    limits (-20.0 45.0)
           (-30.0 30.0)
           (-30.0 30.0)
  end
  begin
     id 17 
     name lclavicle
     direction 0.927314 0.333734 -0.169441  
     length 3.97584  
     axis 0 0 0   XYZ
    dof ry rz
    limits (-20.0 10.0)
           (0.0 20.0)
  end
  begin
     id 18 
     name lhumerus
     direction 1 -4.48965e-011 -3.25313e-028   
     length 4.76468   
     axis 180 -30 -90   XYZ
    dof rx ry rz
    limits (-60.0 90.0)
           (-90.0 90.0)
           (-90.0 90.0)
  end
  begin
     id 19
     name lradius
     direction 1 -4.48969e-011 -2.8465e-028   
     length 3.52712   
     axis -180 -30 -90   XYZ
    dof rx
    limits (-10.0 170.0)
  end
  begin
     id 20
     name lwrist
     direction 1 -4.4896e-011 -7.78665e-028   
     length 1.76356   
     axis 1.91374e-015 90 90   XYZ
    dof ry
    limits (-180.0 0.0)
 end
  begin
     id 21 
     name lhand
     direction 1 -4.48959e-011 -1.55733e-027   
     length 0.859564   
     axis 9.9371e-016 90 90   XYZ
    dof rx rz
    limits (-90.0 90.0)
           (-45.0 45.0)
  end
  begin
     id 22 
     name lfingers
     direction 1 -4.48965e-011 -3.11466e-027   
     length 0.693002   
     axis 1.98742e-015 90 90   XYZ
    dof rx
    limits (0.0 90.0)
  end
  begin
     id 23
     name lthumb
     direction 0.707107 -6.34948e-011 0.707107   
     length 0.995017   
     axis -90 45 2.85299e-015   XYZ
    dof rx rz
    limits (-45.0 45.0)
           (-45.0 45.0)
  end
  begin
     id 24 
     name rclavicle
     direction -0.899388 0.348209 -0.264294   
     length 3.68366  
     axis 0 0 0   XYZ 
    dof ry rz
    limits (-10.0 20.0)
           (-20.0 0.0)
  end
  begin
     id 25 
     name rhumerus
     direction -1 -4.48965e-011 -3.01536e-027  
     length 4.90577   
     axis 180 30 90   XYZ
    dof rx ry rz
    limits (-90.0 60.0)
           (-90.0 90.0)
           (-90.0 90.0)
  end
  begin
     id 26 
     name rradius
     direction -1 -4.48966e-011 3.93291e-027   
     length 3.42692   
     axis -180 30 90   XYZ
    dof rx
    limits (-10.0 170.0)
  end
  begin
     id 27 
     name rwrist
     direction -1 -4.48969e-011 -7.78665e-028   
     length 1.71346   
     axis 1.91374e-015 -90 -90   XYZ
    dof ry
    limits (-180.0 0.0)
  end
  begin
     id 28
     name rhand
     direction -1 -4.48967e-011 -1.55733e-027   
     length 0.740957   
     axis 9.9371e-016 -90 -90   XYZ
    dof rx rz
    limits (-90.0 90.0)
           (-45.0 45.0)
  end
  begin
     id 29
     name rfingers
     direction -1 -4.48949e-011 -3.11466e-027   
     length 0.597378   
     axis 1.98742e-015 -90 -90   XYZ
    dof rx
    limits (0.0 90.0)
  end
  begin
     id 30
     name rthumb
     direction -0.707107 -6.34931e-011 0.707107   
     length 0.857719   
     axis -90 -45 -2.85299e-015   XYZ
    dof rx rz
    limits (-45.0 45.0)
           (-45.0 45.0)
  end
:hierarchy
  begin
    root lhipjoint rhipjoint lowerback
    lhipjoint lfemur
    lfemur ltibia
    ltibia lfoot
    lfoot ltoes
    rhipjoint rfemur
    rfemur rtibia
    rtibia rfoot
    rfoot rtoes
    lowerback upperback
    upperback thorax
    thorax lowerneck lclavicle rclavicle
    lowerneck upperneck
    upperneck head
    lclavicle lhumerus
    lhumerus lradius
    lradius lwrist
    lwrist lhand lthumb
    lhand lfingers
    rclavicle rhumerus
    rhumerus rradius
    rradius rwrist
    rwrist rhand rthumb
    rhand rfingers
  end

#!OML:ASF E:\I on waltz\AllaLogoMonkeySwing\Project 1\Capture day 1\Session 1\Subject1.ASF
:FULLY-SPECIFIED
:DEGREES
95
root 0.150881 18.0244 -32.5465 2.5736 -0.505113 -1.24102
lowerback 5.77705 -0.0399456 -2.90246
upperback -0.519231 -0.208929 1.28133
thorax -3.76439 -0.031414 2.97624
lowerneck -10.5871 -2.4305 -5.30985
upperneck 18.206 -2.30671 -0.280059
head 7.40718 -1.49184 0.568807
rclavicle -3.32304e-015 4.76462e-015
rhumerus -37.0564 -28.4631 -71.7158
rradius 26.7187
rwrist 2.88322
rhand -9.56849 -37.1433
rfingers 7.12502
rthumb 16.3991 -66.47
lclavicle -3.32304e-015 4.76462e-015
lhumerus -42.6436 27.3185 74.8648
lradius 37.6764
lwrist -1.28036
lhand -7.6835 -12.5091
lfingers 7.12502
lthumb 18.2134 16.6582
rfemur 0.69578 -3.14794 12.0758
rtibia 14.2049
rfoot -15.132 -11.9627
rtoes -0.0650061
lfemur 4.08319 2.14597 -13.6191
ltibia 7.18702
lfoot -11.878 4.8324
ltoes -37.9029
96
root 0.150815 18.0217 -32.5444 2.53917 -0.507297 -1.14331
lowerback 5.84793 0.00752309 -2.99588
upperback -0.48751 -0.1542 1.27437
thorax -3.77535 -0.00260708 3.0172
lowerneck -10.7639 -2.0759 -4.84623
upperneck 18.6875 -1.85558 -0.447362
head 7.57669 -1.26742 0.478148
rclavicle -1.25397e-014 7.04443e-015
rhumerus -37.0673 -28.5287 -71.7067
rradius 26.7666
rwrist 2.89286
rhand -8.16682 -37.8588
rfingers 7.12502
rthumb 17.7483 -67.0688
lclavicle -1.25397e-014 7.04443e-015
lhumerus -42.4771 27.1619 75.035
lradius 37.641
lwrist -1.30561
lhand -7.59142 -12.5494
lfingers 7.12502
lthumb 18.3019 16.6097
rfemur 0.637668 -3.13252 11.9523
rtibia 14.3875
rfoot -15.2264 -11.9179
rtoes 0.35692
lfemur 4.0837 2.14332 -13.7297
ltibia 7.25578
lfoot -11.8979 4.82485
ltoes -37.7044
97
root 0.149324 18.0191 -32.5409 2.46499 -0.494927 -1.16895
lowerback 5.96484 0.046225 -2.91157
upperback -0.453904 -0.0997319 1.26874
thorax -3.81041 0.02285 2.9594
lowerneck -11.0333 -1.8081 -4.33562
upperneck 19.2538 -1.51062 -0.697061
head 7.79607 -1.09919 0.341543
rclavicle -2.33727e-015 1.3741e-014
rhumerus -37.0612 -28.7766 -71.6322
rradius 26.6767
rwrist 2.97958
rhand -7.34325 -38.2584
rfingers 7.12502
rthumb 18.5407 -67.3948
lclavicle -2.33727e-015 1.3741e-014
lhumerus -42.3901 26.9833 75.1507
lradius 37.6618
lwrist -1.27738
lhand -7.47461 -12.5808
lfingers 7.12502
lthumb 18.4143 16.5677
rfemur 0.626274 -3.1549 11.97
rtibia 14.5733
rfoot -15.3411 -11.8542
rtoes 0.642932
lfemur 4.13997 2.18503 -13.6595
ltibia 7.32564
lfoot -11.9571 4.76541
ltoes -37.624
98
root 0.14761 18.017 -32.5363 2.38447 -0.475179 -1.18692
lowerback 6.0949 0.097594 -2.76439
upperback -0.435262 -0.0258937 1.21385
thorax -3.8695 0.0567146 2.8131
lowerneck -11.411 -1.5097 -3.90196
upperneck 19.9764 -1.10455 -0.928109
head 8.09168 -0.908194 0.229121
rclavicle -2.59235e-015 5.34234e-016
rhumerus -37.2113 -29.0994 -71.5312
rradius 26.7319
rwrist 3.04955
rhand -7.68838 -38.2312
rfingers 7.12502
rthumb 18.2087 -67.399
lclavicle -2.59235e-015 5.34234e-016
lhumerus -42.2634 26.7323 75.2659
lradius 37.6553
lwrist -1.21261
lhand -7.44279 -12.5238
lfingers 7.12502
lthumb 18.4449 16.6218
rfemur 0.601639 -3.22881 11.9761
rtibia 14.8573
rfoot -15.5598 -11.762
rtoes 0.603906
lfemur 4.19287 2.1826 -13.6131
ltibia 7.43055
lfoot -12.0407 4.74411
ltoes -37.4818
99
root 0.146296 18.0137 -32.5305 2.37769 -0.468931 -1.13984
lowerback 6.10669 0.152077 -2.69355
upperback -0.422616 0.0492542 1.14981
thorax -3.86793 0.0917264 2.69959
lowerneck -11.3767 -1.22565 -3.61531
upperneck 20.1635 -0.784071 -0.84968
head 8.14022 -0.729436 0.240486
rclavicle -8.39098e-015 1.63586e-014
rhumerus -37.3996 -29.1937 -71.5227
rradius 26.9226
rwrist 2.98975
rhand -8.70202 -37.73
rfingers 7.12502
rthumb 17.2333 -66.9859
lclavicle -8.39098e-015 1.63586e-014
lhumerus -42.0818 26.4615 75.4378
lradius 37.6367
lwrist -1.14974
lhand -7.51251 -12.3022
lfingers 7.12502
lthumb 18.3778 16.8497
rfemur 0.48544 -3.32321 11.8989
rtibia 15.16
rfoot -15.7979 -11.6925
rtoes 0.452123
lfemur 4.17391 2.09285 -13.6874
ltibia 7.52173
lfoot -12.0903 4.81995
ltoes -37.4388
100
root 0.142174 18.0077 -32.5221 2.4457 -0.470059 -1.07024
lowerback 5.99106 0.19445 -2.69078
upperback -0.406822 0.106711 1.09209
thorax -3.79007 0.118171 2.63237
lowerneck -11.4879 -0.931345 -3.59282
upperneck 20.5241 -0.461053 -0.427475
head 8.27591 -0.537956 0.410143
rclavicle 1.34917e-015 -1.80024e-014
rhumerus -37.5143 -29.2855 -71.545
rradius 27.0472
rwrist 2.9354
rhand -9.17618 -37.2561
rfingers 7.12502
rthumb 16.7768 -66.5512
lclavicle 1.34917e-015 -1.80024e-014
lhumerus -41.9758 26.2081 75.5755
lradius 37.6652
lwrist -1.13122
lhand -7.60941 -12.1834
lfingers 7.12502
lthumb 18.2846 16.9772
rfemur 0.299274 -3.35693 11.8253
rtibia 15.4118
rfoot -15.9123 -11.6871
rtoes 0.746535
lfemur 4.10389 2.06508 -13.7671
ltibia 7.57676
lfoot -12.162 4.86007
ltoes -37.4506
